<?xml version="1.0" encoding="utf-8"?>
<!-- Generator: Adobe Illustrator 16.0.0, SVG Export Plug-In . SVG Version: 6.00 Build 0)  -->
<!DOCTYPE svg PUBLIC "-//W3C//DTD SVG 1.1//EN" "http://www.w3.org/Graphics/SVG/1.1/DTD/svg11.dtd">
<svg version="1.1" id="Layer_1" xmlns="http://www.w3.org/2000/svg" xmlns:xlink="http://www.w3.org/1999/xlink" x="0px" y="0px"
	 width="1280px" height="800px" viewBox="0 0 1280 800" enable-background="new 0 0 1280 800" xml:space="preserve">
<g>
	<g>
		<path fill="#FFFFFF" stroke="#000000" stroke-miterlimit="10" d="M600.004,300.937c-54.718,0-99.074,44.344-99.074,99.045
			c0,54.699,44.357,99.045,99.074,99.045c54.718,0,99.074-44.347,99.074-99.045C699.079,345.281,654.722,300.937,600.004,300.937z
			 M628.846,324.488c5.065-3.741,43.326-1.866,21.356,53.043c-6.472,16.173-4.526,36.913-14.251,52.035
			c-7.562,12.962,7.199,34.36-7.928,43.003c-27.015,15.125-64.833,1.08-84.282-19.444c-24.854-24.843-29.161-69.43-11.548-74.712
			C561.254,375.771,603.994,342.852,628.846,324.488"/>
		<g>
			<path d="M600.004,299.946c-29.188,0.135-56.973,12.909-76.038,35.009c-19.104,22.144-27.182,52.024-22.781,80.82
				c4.345,28.42,21.631,53.792,45.835,69.083c24.948,15.759,56.433,19.238,84.396,10.129c27.183-8.857,49.512-29.758,60.733-55.954
				c11.556-26.978,10.215-58.32-2.955-84.448C672.38,321.224,637.193,300.117,600.004,299.946c-1.278-0.005-1.278,1.975,0,1.981
				c30.662,0.142,59.69,14.55,78.277,38.948c18.667,24.506,24.355,57.083,15.898,86.598c-8.292,28.938-30.425,52.74-58.314,63.81
				c-28.668,11.375-61.722,8.049-87.844-8.134c-25.788-15.976-42.761-43.848-45.679-73.948
				c-2.953-30.466,9.025-60.829,31.427-81.542c17.939-16.586,41.875-25.619,66.233-25.731
				C601.281,301.922,601.282,299.94,600.004,299.946z"/>
			<path d="M629.346,325.344c3.264-2.289,9.18-0.94,12.567,0.206c7.19,2.431,11.743,8.564,13.354,15.813
				c3.218,14.479-4.015,28.096-7.925,41.559c-2.402,8.271-3.228,16.934-4.834,25.373c-0.769,4.042-1.77,8.029-3.12,11.916
				c-1.369,3.94-3.94,7.244-5.366,11.098c-2.255,6.085-1.228,12.683-0.468,18.95c0.781,6.459,1.792,14.02-3.044,19.196
				c-2.623,2.809-6.924,4.349-10.445,5.604c-4.013,1.434-8.238,2.233-12.472,2.642c-8.155,0.783-16.405-0.33-24.285-2.441
				c-30.679-8.22-54.541-33.381-59.961-64.757c-1.528-8.856-2.117-21.073,4.449-28.217c3.279-3.567,8.361-3.265,12.764-4.322
				c6.168-1.481,12.107-3.873,17.868-6.496C584.114,359.78,606.783,342.025,629.346,325.344c1.016-0.751,0.029-2.472-1-1.71
				c-12.228,9.04-24.406,18.144-37.054,26.598c-13.407,8.962-27.456,17.539-42.635,23.159c-3.069,1.136-6.204,2.082-9.384,2.846
				c-2.823,0.678-5.998,0.597-8.666,1.708c-3.634,1.514-6.08,4.753-7.615,8.268c-4.514,10.326-2.508,23.166,0.457,33.606
				c8.309,29.261,32.86,50.963,62.146,58.068c14.365,3.485,30.741,2.906,43.659-4.906c11.578-7.003,5.277-23.356,5.386-34.019
				c0.036-3.506,0.846-6.781,2.706-9.76c2.188-3.506,3.688-7.436,4.909-11.366c2.562-8.261,3.436-16.964,4.977-25.446
				c2.731-15.021,10.68-28.562,10.713-44.13c0.016-7.93-2.52-16.042-8.929-21.083c-4.312-3.392-9.971-5.082-15.434-4.86
				c-1.718,0.07-3.784,0.295-5.235,1.313C627.308,324.361,628.298,326.08,629.346,325.344L629.346,325.344z"/>
		</g>
	</g>
	<g>
		<path fill="none" stroke="#000000" stroke-miterlimit="10" d="M601.679,355.435c-21.176,15.647-35.906,23.011-62.607,27.612
			c-13.923,6.59-9.207,42.34,11.97,63.51c16.574,17.488,48.798,29.455,71.816,16.568c12.891-7.362-1.711-32.102,4.732-43.147
			c8.287-12.885,4.999-26.449,10.725-39.805C642.555,371.17,655.732,312.205,601.679,355.435z M598.023,402.128
			c-0.39,1.294-2.417,6.772-2.973,13.041c-1.815,10.896-1.656,24.577,1.969,37.871c2.764,10.124-14.344-25.598-21.709-31.122
			c-8.285-5.521-27.702-10.729-35.067-17.17c12.405,1.868,19.472,1.63,33.122-1.684c10.472-2.543,5.853-1.052,23.777-20.471
			c10.15-10.998,33.125-34.765,18.495-9.024C607.361,388.128,600.665,393.324,598.023,402.128z"/>
	</g>
</g>
</svg>
