<?xml version="1.0" encoding="utf-8"?>
<!-- Generator: Adobe Illustrator 16.0.0, SVG Export Plug-In . SVG Version: 6.00 Build 0)  -->
<!DOCTYPE svg PUBLIC "-//W3C//DTD SVG 1.1//EN" "http://www.w3.org/Graphics/SVG/1.1/DTD/svg11.dtd">
<svg version="1.1" id="Layer_1" xmlns="http://www.w3.org/2000/svg" xmlns:xlink="http://www.w3.org/1999/xlink" x="0px" y="0px"
	 width="200px" height="200px" viewBox="0 0 200 200" enable-background="new 0 0 200 200" xml:space="preserve">
<g>
	<g>
		<path fill="#FFFFFF" stroke="#000000" stroke-miterlimit="10" d="M130.749,23.369c5.065-3.741,43.326-1.866,21.356,53.043
			c-6.473,16.173-4.526,36.913-14.252,52.035c-7.562,12.962,7.199,34.359-7.928,43.003c-27.015,15.125-64.833,1.08-84.282-19.444
			c-24.854-24.843-29.161-69.43-11.548-74.712C63.157,74.651,105.896,41.732,130.749,23.369"/>
		<g>
			<path stroke="#000000" stroke-miterlimit="10" d="M131.249,24.224c3.265-2.289,9.181-0.939,12.567,0.206
				c7.189,2.432,11.742,8.564,13.354,15.813c3.219,14.479-4.016,28.096-7.925,41.559c-2.402,8.271-3.228,16.935-4.834,25.374
				c-0.769,4.041-1.771,8.028-3.12,11.916c-1.369,3.939-3.939,7.243-5.366,11.098c-2.255,6.085-1.228,12.683-0.468,18.949
				c0.781,6.459,1.792,14.021-3.044,19.196c-2.623,2.81-6.924,4.349-10.445,5.604c-4.013,1.434-8.237,2.232-12.472,2.642
				c-8.155,0.783-16.405-0.33-24.285-2.44C54.532,165.92,30.67,140.76,25.25,109.383c-1.528-8.855-2.117-21.073,4.449-28.217
				c3.279-3.567,8.361-3.266,12.764-4.322c6.168-1.48,12.107-3.873,17.868-6.496C86.018,58.661,108.688,40.906,131.249,24.224
				c1.017-0.751,0.028-2.472-1-1.71c-12.228,9.04-24.406,18.145-37.054,26.599C79.788,58.075,65.739,66.651,50.56,72.271
				c-3.069,1.137-6.204,2.082-9.384,2.847c-2.823,0.678-5.998,0.597-8.666,1.708c-3.634,1.514-6.08,4.753-7.615,8.268
				c-4.514,10.326-2.508,23.166,0.457,33.606c8.309,29.261,32.86,50.963,62.146,58.067c14.365,3.485,30.74,2.906,43.659-4.905
				c11.577-7.003,5.276-23.356,5.386-34.019c0.036-3.506,0.846-6.781,2.706-9.761c2.188-3.506,3.688-7.437,4.909-11.366
				c2.562-8.261,3.436-16.964,4.977-25.446c2.731-15.021,10.68-28.562,10.713-44.13c0.017-7.93-2.52-16.042-8.929-21.083
				c-4.312-3.392-9.971-5.082-15.435-4.859c-1.717,0.069-3.783,0.295-5.234,1.312C129.211,23.242,130.201,24.961,131.249,24.224
				L131.249,24.224z"/>
		</g>
	</g>
	<g>
		<path fill="#FFFFFF" stroke="#000000" stroke-miterlimit="10" d="M102.336,56.823C81.16,72.471,66.43,79.835,39.728,84.436
			c-13.923,6.59-9.207,42.339,11.97,63.509c16.574,17.488,48.798,29.455,71.815,16.568c12.892-7.361-1.711-32.102,4.732-43.146
			c8.287-12.885,4.999-26.448,10.725-39.805C143.212,72.559,156.391,13.594,102.336,56.823z M98.681,103.518
			c-0.39,1.293-2.417,6.771-2.973,13.041c-1.815,10.896-1.656,24.576,1.969,37.871c2.764,10.123-14.344-25.599-21.709-31.123
			c-8.285-5.521-27.702-10.729-35.067-17.17c12.405,1.868,19.472,1.631,33.122-1.684c10.472-2.544,5.853-1.053,23.777-20.471
			c10.15-10.998,33.125-34.765,18.495-9.023C108.02,89.517,101.322,94.713,98.681,103.518z"/>
	</g>
</g>
</svg>
