<?xml version="1.0" encoding="utf-8"?>
<!-- Generator: Adobe Illustrator 16.0.0, SVG Export Plug-In . SVG Version: 6.00 Build 0)  -->
<!DOCTYPE svg PUBLIC "-//W3C//DTD SVG 1.1//EN" "http://www.w3.org/Graphics/SVG/1.1/DTD/svg11.dtd">
<svg version="1.1" id="Layer_1" xmlns="http://www.w3.org/2000/svg" xmlns:xlink="http://www.w3.org/1999/xlink" x="0px" y="0px"
	 width="200px" height="200px" viewBox="0 0 200 200" enable-background="new 0 0 200 200" xml:space="preserve">
<g>
	<path fill="#FFFFFF" stroke="#000000" stroke-miterlimit="10" d="M97.8,83.982c-17.924,19.418-13.305,17.927-23.777,20.471
		c-13.65,3.314-20.717,3.552-33.122,1.684c7.365,6.441,26.782,11.649,35.067,17.17c7.365,5.524,24.473,41.246,21.709,31.123
		c-3.625-13.295-3.784-26.975-1.969-37.871c0.556-6.27,2.583-11.748,2.973-13.041c2.641-8.805,9.338-14,17.614-28.559
		C130.925,49.217,107.95,72.984,97.8,83.982z"/>
	<path fill="#FFFFFF" stroke="#000000" stroke-miterlimit="10" d="M100,0C44.771,0,0,44.771,0,100s44.771,100,100,100
		s100-44.771,100-100S155.229,0,100,0z M149.5,67.167c0,6.572-2.502,14.407-3.74,20.667c-2.144,10.836-4.652,20.183-6.926,31
		c-1.152,5.483-2,9.462-2,15.333c0,5.438,4.18,15.275,3.407,20.333c-0.945,6.191-1.55,12.406-6.733,16.583
		c-4.269,3.44-10.39,6.488-15.674,7.761c-7.402,1.781-13.602,2.223-21.323,1.99c-3.326-0.1-5.477-1.228-8.671-1.918
		c-3.666-0.793-6.848-0.814-9.923-2.5c-11.412-6.255-22.865-10.897-31.407-20.991c-7.114-8.406-15.86-13.902-20.34-24.065
		c-1.252-2.841,0.003,0.009-4.41-12.502c-1.333-10.333-2.656-23.565,3.408-32.69c7.446-11.205,19.399-15.016,32.015-17.416
		c6.423-1.221,12.606-2.152,18.575-5.343c5.262-2.813,10.02-6.754,14.816-10.15c10.032-7.103,21.7-18.147,34.26-18.758
		c4.859-0.236,11.594-0.644,16,1.668c5.644,2.961,9.726,8.509,10,14.332C151.109,56.331,149.5,61.329,149.5,67.167z"/>
</g>
</svg>
