<?xml version="1.0" encoding="utf-8"?>
<!-- Generator: Adobe Illustrator 16.0.0, SVG Export Plug-In . SVG Version: 6.00 Build 0)  -->
<!DOCTYPE svg PUBLIC "-//W3C//DTD SVG 1.1//EN" "http://www.w3.org/Graphics/SVG/1.1/DTD/svg11.dtd">
<svg version="1.1" id="Layer_1" xmlns="http://www.w3.org/2000/svg" xmlns:xlink="http://www.w3.org/1999/xlink" x="0px" y="0px"
	 width="200px" height="200px" viewBox="0 0 200 200" enable-background="new 0 0 200 200" xml:space="preserve">
<path fill="#FFFFFF" stroke="#000000" stroke-miterlimit="10" d="M100,0C44.771,0,0,44.771,0,100s44.771,100,100,100
	s100-44.771,100-100S155.229,0,100,0z M165.926,150.811c-1.215,2.582-3.293,5.037-5.588,6.75c-2.418,1.807-5.711,3.9-8.301,3.543
	c-2.084-0.289-4.67-3.795-5.316-6.312c-1.873-7.334-11.553-15.934-19.143-15.869c-28.743,0.238-54.35-9.182-77.686-25.355
	c-11.659-8.08-18.208-19.095-17.829-33.713c0.438-16.923,8.053-29.634,23.427-36.768c15.34-7.121,30.329-5.333,43.015,6.018
	c21.93,19.627,36.959,43.587,42.922,72.753c1.492,7.305,11.795,15.26,19.135,15.65c2.559,0.143,6.381,2.275,7.109,4.373
	C168.543,144.387,167.215,148.066,165.926,150.811z"/>
</svg>
