<?xml version="1.0" encoding="utf-8"?>
<!-- Generator: Adobe Illustrator 16.0.0, SVG Export Plug-In . SVG Version: 6.00 Build 0)  -->
<!DOCTYPE svg PUBLIC "-//W3C//DTD SVG 1.1//EN" "http://www.w3.org/Graphics/SVG/1.1/DTD/svg11.dtd">
<svg version="1.1" id="Layer_1" xmlns="http://www.w3.org/2000/svg" xmlns:xlink="http://www.w3.org/1999/xlink" x="0px" y="0px"
	 width="200px" height="200px" viewBox="0 0 200 200" enable-background="new 0 0 200 200" xml:space="preserve">
<g>
	<path fill="#FFFFFF" stroke="#010202" stroke-miterlimit="10" d="M100,0C44.771,0,0,44.771,0,100c0,55.229,44.771,100,100,100
		c55.229,0,100-44.771,100-100C200,44.771,155.229,0,100,0z M164.921,113.865l-16.284-10.688
		c-11.682,6.619-31.025,14.312-53.947,14.312c-36.12,0-65.39-10.851-65.39-24.24c0-9.871,15.933-18.365,38.792-22.142
		c0.713-0.118,1.433-0.231,2.159-0.34c7.55-1.128,15.798-1.749,24.439-1.749c22.11,0,41.851,13.062,53.692,19.272l16.539-14.631
		V113.865z"/>
</g>
<circle fill="#FFFFFF" stroke="#010202" stroke-miterlimit="10" cx="55.131" cy="84.75" r="3.09"/>
</svg>
