<?xml version="1.0" encoding="utf-8"?>
<!-- Generator: Adobe Illustrator 16.0.0, SVG Export Plug-In . SVG Version: 6.00 Build 0)  -->
<!DOCTYPE svg PUBLIC "-//W3C//DTD SVG 1.1//EN" "http://www.w3.org/Graphics/SVG/1.1/DTD/svg11.dtd">
<svg version="1.1" id="Layer_1" xmlns="http://www.w3.org/2000/svg" xmlns:xlink="http://www.w3.org/1999/xlink" x="0px" y="0px"
	 width="202px" height="202px" viewBox="0 0 202 202" enable-background="new 0 0 202 202" xml:space="preserve">
<g>
	<path fill="none" stroke="#000000" stroke-miterlimit="10" d="M101,1C45.771,1,1,45.771,1,101s44.771,100,100,100
		s100-44.771,100-100S156.229,1,101,1z M165.921,114.865l-16.285-10.688c-11.681,6.619-31.025,14.312-53.946,14.312
		c-36.12,0-65.39-10.851-65.39-24.24c0-9.871,15.933-18.365,38.792-22.142c0.713-0.118,1.433-0.231,2.159-0.34
		c7.55-1.128,15.798-1.749,24.439-1.749c22.11,0,41.851,13.062,53.692,19.272l16.539-14.631V114.865z"/>
	<circle fill="none" stroke="#000000" stroke-miterlimit="10" cx="53.326" cy="86.112" r="3.181"/>
</g>
<path fill="none" stroke="#000000" stroke-miterlimit="10" d="M71.251,71.769"/>
<path fill="none" stroke="#000000" stroke-miterlimit="10" d="M71.251,116.737"/>
<path fill="none" stroke="#000000" stroke-miterlimit="10" d="M67.741,72.341"/>
</svg>
