<?xml version="1.0" encoding="utf-8"?>
<!-- Generator: Adobe Illustrator 16.0.0, SVG Export Plug-In . SVG Version: 6.00 Build 0)  -->
<!DOCTYPE svg PUBLIC "-//W3C//DTD SVG 1.1//EN" "http://www.w3.org/Graphics/SVG/1.1/DTD/svg11.dtd">
<svg version="1.1" id="Layer_1" xmlns="http://www.w3.org/2000/svg" xmlns:xlink="http://www.w3.org/1999/xlink" x="0px" y="0px"
	 width="200px" height="200px" viewBox="0 0 200 200" enable-background="new 0 0 200 200" xml:space="preserve">
<path fill="#FFFFFF" stroke="#000000" stroke-miterlimit="10" d="M100.001,0C44.771,0,0,44.771,0,100c0,55.228,44.771,100,100,100
	C155.229,200,200,155.229,200,100C200,44.771,155.229,0,100.001,0z M93.417,175.656c-8.72,0.086-14.993-6.191-14.961-14.969
	c0.031-8.453,6.247-14.68,14.794-14.818c8.224-0.135,14.715,6.41,14.733,14.852C108.001,169.299,101.882,175.572,93.417,175.656z
	 M137.605,96.336c-6.475,4.474-13.666,7.537-20.795,10.738c-10.835,4.863-17.242,12.629-17.023,25.105
	c0.103,5.857-2.759,8.721-7.919,8.9c-5.386,0.186-9.141-3.02-9.662-8.594c-1.137-12.164,3.559-21.994,12.434-30.033
	c6.08-5.507,13.344-9.188,20.481-13.045c3.71-2.006,7.195-4.336,10.692-6.683c11.963-8.022,12.832-29.714-2.775-38.215
	c-17.158-9.345-42.816-6.176-54.616,7.42c-3.964,4.569-6.602,9.788-4.616,16.088c0.798,2.534,1.405,4.946,4.799,1.207
	c4.126-4.546,10.197-5.895,16.209-4.699c7.148,1.422,9.337,10.929,4.133,16.692c-6.42,7.108-22.021,10.121-30.622,5.912
	c-9.167-4.487-13.967-15.066-11.886-26.406c2.948-16.06,13.149-25.938,27.752-31.686c8.588-3.382,17.632-4.926,26.93-4.667
	c11.39,0.152,22.446,1.872,32.656,7.281C159.041,45.039,161.097,80.105,137.605,96.336z"/>
</svg>
