<?xml version="1.0" encoding="utf-8"?>
<!-- Generator: Adobe Illustrator 16.0.0, SVG Export Plug-In . SVG Version: 6.00 Build 0)  -->
<!DOCTYPE svg PUBLIC "-//W3C//DTD SVG 1.1//EN" "http://www.w3.org/Graphics/SVG/1.1/DTD/svg11.dtd">
<svg version="1.1" id="Layer_1" xmlns="http://www.w3.org/2000/svg" xmlns:xlink="http://www.w3.org/1999/xlink" x="0px" y="0px"
	 width="200px" height="200px" viewBox="0 0 200 200" enable-background="new 0 0 200 200" xml:space="preserve">
<path fill="#FFFFFF" stroke="#000000" stroke-miterlimit="10" d="M100,0C44.771,0,0,44.771,0,100c0,55.228,44.771,100,100,100
	c55.228,0,100-44.772,100-100C200,44.771,155.228,0,100,0z M163.827,36.251c-1.165,3.691-1.477,5.44-1.981,11.619
	c-0.972,11.658-1.982,15.155-5.829,19.896c-5.751,7.111-13.872,11.58-23.977,13.25c-2.603,0.428-5.09,1.05-5.595,1.36
	c-3.497,2.253-9.249,16.087-14.649,34.973c-3.187,11.074-4.78,18.496-6.646,30.893c-2.798,18.342-3.186,19.935-5.208,20.518
	c-1.36,0.35-7.733,0.35-9.054,0c-0.583-0.155-1.166-0.622-1.321-0.972c-0.427-1.127-2.059-8.315-3.536-15.66
	c-1.321-6.605-5.44-23.626-7.305-30.31C71.382,95.705,67.34,84.319,61.473,72.856c-6.956-13.484-13.523-22.965-24.869-35.75
	c-2.41-2.681-2.138-3.226,1.049-2.137c4.896,1.632,13.018,7.616,18.73,13.873c10.414,11.308,15.543,18.691,19.429,27.9
	c5.674,13.523,8.044,20.944,13.601,42.551c3.575,13.794,5.285,19.351,5.907,19.118c0.506-0.156,3.342-8.354,6.49-18.73
	c1.865-6.062,4.663-14.145,8.472-24.286c3.924-10.453,9.753-22.189,14.222-28.756c4.313-6.256,5.091-7.267,7.384-9.715
	c2.447-2.564,4.508-5.129,4.508-5.557c0-1.243-6.023,1.127-9.016,3.536c-5.868,4.702-12.746,13.406-15.116,19.119
	c-0.466,1.166-1.01,2.292-1.166,2.487c-0.66,0.738-1.243-2.06-1.282-5.984c-0.039-10.298,5.479-21.645,13.367-27.512
	c5.558-4.119,7.539-4.857,20.013-7.306c4.896-0.972,11.464-2.448,14.572-3.264c6.333-1.671,6.955-1.749,7.227-1.049
	C165.07,31.666,164.566,33.842,163.827,36.251z"/>
</svg>
